<?xml version="1.0" encoding="UTF-8"?>
<svg xmlns="http://www.w3.org/2000/svg" xmlns:xlink="http://www.w3.org/1999/xlink" width="223.15pt" height="222.06pt" viewBox="0 0 223.15 222.06" version="1.2">
<defs>
<clipPath id="clip1">
  <path d="M 0.046875 46 L 40 46 L 40 87 L 0.046875 87 Z M 0.046875 46 "/>
</clipPath>
<clipPath id="clip2">
  <path d="M 0.046875 10 L 46 10 L 46 58 L 0.046875 58 Z M 0.046875 10 "/>
</clipPath>
<clipPath id="clip3">
  <path d="M 0.046875 20 L 104 20 L 104 52 L 0.046875 52 Z M 0.046875 20 "/>
</clipPath>
<clipPath id="clip4">
  <path d="M 0.046875 0 L 104 0 L 104 102 L 0.046875 102 Z M 0.046875 0 "/>
</clipPath>
<clipPath id="clip5">
  <path d="M 0.046875 146 L 40 146 L 40 191 L 0.046875 191 Z M 0.046875 146 "/>
</clipPath>
<clipPath id="clip6">
  <path d="M 188 164 L 222.257812 164 L 222.257812 167 L 188 167 Z M 188 164 "/>
</clipPath>
<clipPath id="clip7">
  <path d="M 112 110 L 222.257812 110 L 222.257812 221.125 L 112 221.125 Z M 112 110 "/>
</clipPath>
<clipPath id="clip8">
  <path d="M 188 149 L 222.257812 149 L 222.257812 183 L 188 183 Z M 188 149 "/>
</clipPath>
</defs>
<g id="surface1">
<path style="fill:none;stroke-width:10;stroke-linecap:butt;stroke-linejoin:miter;stroke:rgb(13.729858%,12.159729%,12.548828%);stroke-opacity:1;stroke-miterlimit:4;" d="M 1925.536159 1962.166891 C 1925.536159 1822.201904 1812.049974 1708.715719 1672.084987 1708.715719 C 1532.12 1708.715719 1418.633815 1822.201904 1418.633815 1962.166891 C 1418.633815 2102.131878 1532.12 2215.618062 1672.084987 2215.618062 C 1812.049974 2215.618062 1925.536159 2102.131878 1925.536159 1962.166891 Z M 1925.536159 1962.166891 " transform="matrix(0.0995785,0,0,-0.0995785,0.0471076,221.123962)"/>
<path style="fill:none;stroke-width:10;stroke-linecap:butt;stroke-linejoin:miter;stroke:rgb(13.729858%,12.159729%,12.548828%);stroke-opacity:1;stroke-miterlimit:4;" d="M 2020.232201 1592.248217 C 2020.232201 1403.483779 1867.243566 1250.495144 1678.479127 1250.495144 C 1489.753916 1250.495144 1336.726054 1403.483779 1336.726054 1592.248217 C 1336.726054 1780.973428 1489.753916 1934.001291 1678.479127 1934.001291 C 1867.243566 1934.001291 2020.232201 1780.973428 2020.232201 1592.248217 Z M 2020.232201 1592.248217 " transform="matrix(0.0995785,0,0,-0.0995785,0.0471076,221.123962)"/>
<path style="fill:none;stroke-width:10;stroke-linecap:butt;stroke-linejoin:miter;stroke:rgb(13.729858%,12.159729%,12.548828%);stroke-opacity:1;stroke-miterlimit:4;" d="M 1624.266232 1956.635763 C 1624.266232 1901.28526 1578.801147 1856.408593 1522.744543 1856.408593 C 1466.687938 1856.408593 1421.262081 1901.28526 1421.262081 1956.635763 C 1421.262081 2011.986267 1466.687938 2056.823705 1522.744543 2056.823705 C 1578.801147 2056.823705 1624.266232 2011.986267 1624.266232 1956.635763 Z M 1624.266232 1956.635763 " transform="matrix(0.0995785,0,0,-0.0995785,0.0471076,221.123962)"/>
<path style="fill:none;stroke-width:10;stroke-linecap:butt;stroke-linejoin:miter;stroke:rgb(13.729858%,12.159729%,12.548828%);stroke-opacity:1;stroke-miterlimit:4;" d="M 1919.612752 1928.038657 C 1919.612752 1886.535586 1885.955253 1852.878086 1844.452182 1852.878086 C 1802.949111 1852.878086 1769.291612 1886.535586 1769.291612 1928.038657 C 1769.291612 1969.541727 1802.949111 2003.199227 1844.452182 2003.199227 C 1885.955253 2003.199227 1919.612752 1969.541727 1919.612752 1928.038657 Z M 1919.612752 1928.038657 " transform="matrix(0.0995785,0,0,-0.0995785,0.0471076,221.123962)"/>
<path style="fill:none;stroke-width:10;stroke-linecap:butt;stroke-linejoin:miter;stroke:rgb(13.729858%,12.159729%,12.548828%);stroke-opacity:1;stroke-miterlimit:4;" d="M 1944.404757 1779.090491 C 1944.404757 1737.822787 1910.943396 1704.322199 1869.636465 1704.322199 C 1828.329534 1704.322199 1794.868173 1737.822787 1794.868173 1779.090491 C 1794.868173 1820.397422 1828.329534 1853.898011 1869.636465 1853.898011 C 1910.943396 1853.898011 1944.404757 1820.397422 1944.404757 1779.090491 Z M 1944.404757 1779.090491 " transform="matrix(0.0995785,0,0,-0.0995785,0.0471076,221.123962)"/>
<path style="fill:none;stroke-width:10;stroke-linecap:butt;stroke-linejoin:miter;stroke:rgb(13.729858%,12.159729%,12.548828%);stroke-opacity:1;stroke-miterlimit:4;" d="M 1579.11497 1776.972187 C 1579.11497 1731.232508 1542.044647 1694.122957 1496.304968 1694.122957 C 1450.526061 1694.122957 1413.455738 1731.232508 1413.455738 1776.972187 C 1413.455738 1822.751094 1450.526061 1859.821417 1496.304968 1859.821417 C 1542.044647 1859.821417 1579.11497 1822.751094 1579.11497 1776.972187 Z M 1579.11497 1776.972187 " transform="matrix(0.0995785,0,0,-0.0995785,0.0471076,221.123962)"/>
<path style="fill:none;stroke-width:10;stroke-linecap:butt;stroke-linejoin:miter;stroke:rgb(92.321777%,13.478088%,17.372131%);stroke-opacity:1;stroke-miterlimit:4;" d="M 1692.561927 1931.45148 L 1692.561927 1711.343985 " transform="matrix(0.0995785,0,0,-0.0995785,0.0471076,221.123962)"/>
<path style="fill:none;stroke-width:10;stroke-linecap:butt;stroke-linejoin:miter;stroke:rgb(92.321777%,13.478088%,17.372131%);stroke-opacity:1;stroke-miterlimit:4;" d="M 1602.965506 1891.321384 L 1794.985857 1796.625342 " transform="matrix(0.0995785,0,0,-0.0995785,0.0471076,221.123962)"/>
<path style="fill:none;stroke-width:10;stroke-linecap:butt;stroke-linejoin:miter;stroke:rgb(92.321777%,13.478088%,17.372131%);stroke-opacity:1;stroke-miterlimit:4;" d="M 1782.158348 1884.495738 L 1576.486704 1796.625342 " transform="matrix(0.0995785,0,0,-0.0995785,0.0471076,221.123962)"/>
<path style=" stroke:none;fill-rule:nonzero;fill:rgb(92.321777%,13.478088%,17.372131%);fill-opacity:1;" d="M 170.875 37.371094 C 170.875 38.777344 169.734375 39.917969 168.328125 39.917969 C 166.925781 39.917969 165.785156 38.777344 165.785156 37.371094 C 165.785156 35.964844 166.925781 34.828125 168.328125 34.828125 C 169.734375 34.828125 170.875 35.964844 170.875 37.371094 "/>
<path style="fill:none;stroke-width:10;stroke-linecap:butt;stroke-linejoin:miter;stroke:rgb(20.050049%,21.966553%,59.739685%);stroke-opacity:1;stroke-miterlimit:4;" d="M 1800.04625 1821.378119 C 1800.04625 1759.633475 1749.991507 1709.61796 1688.286091 1709.61796 C 1626.580675 1709.61796 1576.56516 1759.633475 1576.56516 1821.378119 C 1576.56516 1883.083535 1626.580675 1933.09905 1688.286091 1933.09905 C 1749.991507 1933.09905 1800.04625 1883.083535 1800.04625 1821.378119 Z M 1800.04625 1821.378119 " transform="matrix(0.0995785,0,0,-0.0995785,0.0471076,221.123962)"/>
<path style="fill:none;stroke-width:10;stroke-linecap:butt;stroke-linejoin:miter;stroke:rgb(13.729858%,12.159729%,12.548828%);stroke-opacity:1;stroke-miterlimit:4;" d="M 554.091117 2088.872863 C 554.091117 2154.618748 500.81969 2207.929403 435.073805 2207.929403 C 369.32792 2207.929403 316.056492 2154.618748 316.056492 2088.872863 C 316.056492 2023.126978 369.32792 1969.85555 435.073805 1969.85555 C 500.81969 1969.85555 554.091117 2023.126978 554.091117 2088.872863 Z M 554.091117 2088.872863 " transform="matrix(0.0995785,0,0,-0.0995785,0.0471076,221.123962)"/>
<path style="fill:none;stroke-width:10;stroke-linecap:butt;stroke-linejoin:miter;stroke:rgb(13.729858%,12.159729%,12.548828%);stroke-opacity:1;stroke-miterlimit:4;" d="M 817.780759 2023.597712 C 817.780759 1948.672509 757.056039 1887.947789 682.091608 1887.947789 C 607.166405 1887.947789 546.441685 1948.672509 546.441685 2023.597712 C 546.441685 2098.522915 607.166405 2159.286863 682.091608 2159.286863 C 757.056039 2159.286863 817.780759 2098.522915 817.780759 2023.597712 Z M 817.780759 2023.597712 " transform="matrix(0.0995785,0,0,-0.0995785,0.0471076,221.123962)"/>
<path style="fill:none;stroke-width:10;stroke-linecap:butt;stroke-linejoin:miter;stroke:rgb(13.729858%,12.159729%,12.548828%);stroke-opacity:1;stroke-miterlimit:4;" d="M 981.63551 1754.808449 C 981.63551 1664.309787 908.279421 1590.953698 817.780759 1590.953698 C 727.321325 1590.953698 653.965236 1664.309787 653.965236 1754.808449 C 653.965236 1845.267883 727.321325 1918.623972 817.780759 1918.623972 C 908.279421 1918.623972 981.63551 1845.267883 981.63551 1754.808449 Z M 981.63551 1754.808449 " transform="matrix(0.0995785,0,0,-0.0995785,0.0471076,221.123962)"/>
<path style="fill:none;stroke-width:10;stroke-linecap:butt;stroke-linejoin:miter;stroke:rgb(13.729858%,12.159729%,12.548828%);stroke-opacity:1;stroke-miterlimit:4;" d="M 771.727257 1475.741488 C 771.727257 1356.99877 675.422873 1260.733614 556.680155 1260.733614 C 437.89821 1260.733614 341.633054 1356.99877 341.633054 1475.741488 C 341.633054 1594.523433 437.89821 1690.788589 556.680155 1690.788589 C 675.422873 1690.788589 771.727257 1594.523433 771.727257 1475.741488 Z M 771.727257 1475.741488 " transform="matrix(0.0995785,0,0,-0.0995785,0.0471076,221.123962)"/>
<g clip-path="url(#clip1)" clip-rule="nonzero">
<path style="fill:none;stroke-width:10;stroke-linecap:butt;stroke-linejoin:miter;stroke:rgb(13.729858%,12.159729%,12.548828%);stroke-opacity:1;stroke-miterlimit:4;" d="M 344.182864 1555.138666 C 344.182864 1475.937627 280.006094 1411.760856 200.844282 1411.760856 C 121.643243 1411.760856 57.466472 1475.937627 57.466472 1555.138666 C 57.466472 1634.300478 121.643243 1698.477249 200.844282 1698.477249 C 280.006094 1698.477249 344.182864 1634.300478 344.182864 1555.138666 Z M 344.182864 1555.138666 " transform="matrix(0.0995785,0,0,-0.0995785,0.0471076,221.123962)"/>
</g>
<g clip-path="url(#clip2)" clip-rule="nonzero">
<path style="fill:none;stroke-width:10;stroke-linecap:butt;stroke-linejoin:miter;stroke:rgb(13.729858%,12.159729%,12.548828%);stroke-opacity:1;stroke-miterlimit:4;" d="M 400.514064 1876.414799 C 400.514064 1778.149023 320.842291 1698.477249 222.576514 1698.477249 C 124.310737 1698.477249 44.678191 1778.149023 44.678191 1876.414799 C 44.678191 1974.641349 124.310737 2054.313122 222.576514 2054.313122 C 320.842291 2054.313122 400.514064 1974.641349 400.514064 1876.414799 Z M 400.514064 1876.414799 " transform="matrix(0.0995785,0,0,-0.0995785,0.0471076,221.123962)"/>
</g>
<g clip-path="url(#clip3)" clip-rule="nonzero">
<path style="fill:none;stroke-width:10;stroke-linecap:butt;stroke-linejoin:miter;stroke:rgb(92.321777%,13.478088%,17.372131%);stroke-opacity:1;stroke-miterlimit:4;" d="M 62.605321 1959.577852 L 981.63551 1762.45788 " transform="matrix(0.0995785,0,0,-0.0995785,0.0471076,221.123962)"/>
</g>
<path style="fill:none;stroke-width:10;stroke-linecap:butt;stroke-linejoin:miter;stroke:rgb(92.321777%,13.478088%,17.372131%);stroke-opacity:1;stroke-miterlimit:4;" d="M 413.302345 2207.929403 L 607.872506 1263.283425 " transform="matrix(0.0995785,0,0,-0.0995785,0.0471076,221.123962)"/>
<path style="fill:none;stroke-width:10;stroke-linecap:butt;stroke-linejoin:miter;stroke:rgb(92.321777%,13.478088%,17.372131%);stroke-opacity:1;stroke-miterlimit:4;" d="M 80.493223 1478.330526 L 758.899748 2136.220884 " transform="matrix(0.0995785,0,0,-0.0995785,0.0471076,221.123962)"/>
<path style=" stroke:none;fill-rule:nonzero;fill:rgb(92.321777%,13.478088%,17.372131%);fill-opacity:1;" d="M 51.441406 35.523438 C 51.441406 37.179688 50.101562 38.523438 48.441406 38.523438 C 46.785156 38.523438 45.441406 37.179688 45.441406 35.523438 C 45.441406 33.863281 46.785156 32.519531 48.441406 32.519531 C 50.101562 32.519531 51.441406 33.863281 51.441406 35.523438 "/>
<g clip-path="url(#clip4)" clip-rule="nonzero">
<path style="fill:none;stroke-width:10;stroke-linecap:butt;stroke-linejoin:miter;stroke:rgb(20.050049%,21.966553%,59.739685%);stroke-opacity:1;stroke-miterlimit:4;" d="M 984.18532 1733.036989 C 984.18532 1467.935144 765.254661 1253.044954 495.249334 1253.044954 C 225.20478 1253.044954 6.274121 1467.935144 6.274121 1733.036989 C 6.274121 1998.138834 225.20478 2213.029024 495.249334 2213.029024 C 765.254661 2213.029024 984.18532 1998.138834 984.18532 1733.036989 Z M 984.18532 1733.036989 " transform="matrix(0.0995785,0,0,-0.0995785,0.0471076,221.123962)"/>
</g>
<g clip-path="url(#clip5)" clip-rule="nonzero">
<path style="fill:none;stroke-width:10;stroke-linecap:butt;stroke-linejoin:miter;stroke:rgb(13.729858%,12.159729%,12.548828%);stroke-opacity:1;stroke-miterlimit:4;" d="M 335.238913 529.997129 C 335.238913 438.792366 261.294407 364.887087 170.089644 364.887087 C 78.924108 364.887087 5.018829 438.792366 5.018829 529.997129 C 5.018829 621.201893 78.924108 695.107171 170.089644 695.107171 C 261.294407 695.107171 335.238913 621.201893 335.238913 529.997129 Z M 335.238913 529.997129 " transform="matrix(0.0995785,0,0,-0.0995785,0.0471076,221.123962)"/>
</g>
<path style="fill:none;stroke-width:10;stroke-linecap:butt;stroke-linejoin:miter;stroke:rgb(13.729858%,12.159729%,12.548828%);stroke-opacity:1;stroke-miterlimit:4;" d="M 401.220166 731.9029 C 401.220166 686.123993 364.071387 648.975214 318.253252 648.975214 C 272.474345 648.975214 235.325567 686.123993 235.325567 731.9029 C 235.325567 777.721034 272.474345 814.869813 318.253252 814.869813 C 364.071387 814.869813 401.220166 777.721034 401.220166 731.9029 Z M 401.220166 731.9029 " transform="matrix(0.0995785,0,0,-0.0995785,0.0471076,221.123962)"/>
<path style="fill:none;stroke-width:10;stroke-linecap:butt;stroke-linejoin:miter;stroke:rgb(13.729858%,12.159729%,12.548828%);stroke-opacity:1;stroke-miterlimit:4;" d="M 685.975166 878.144343 C 685.975166 786.978808 612.030659 713.034301 520.825896 713.034301 C 429.660361 713.034301 355.715854 786.978808 355.715854 878.144343 C 355.715854 969.349106 429.660361 1043.293613 520.825896 1043.293613 C 612.030659 1043.293613 685.975166 969.349106 685.975166 878.144343 Z M 685.975166 878.144343 " transform="matrix(0.0995785,0,0,-0.0995785,0.0471076,221.123962)"/>
<path style="fill:none;stroke-width:10;stroke-linecap:butt;stroke-linejoin:miter;stroke:rgb(13.729858%,12.159729%,12.548828%);stroke-opacity:1;stroke-miterlimit:4;" d="M 611.716836 682.318891 C 611.716836 607.393688 672.441556 546.62974 747.366759 546.62974 C 822.33119 546.62974 883.05591 607.393688 883.05591 682.318891 C 883.05591 757.244094 822.33119 818.008041 747.366759 818.008041 C 672.441556 818.008041 611.716836 757.244094 611.716836 682.318891 Z M 611.716836 682.318891 " transform="matrix(0.0995785,0,0,-0.0995785,0.0471076,221.123962)"/>
<path style="fill:none;stroke-width:10;stroke-linecap:butt;stroke-linejoin:miter;stroke:rgb(13.729858%,12.159729%,12.548828%);stroke-opacity:1;stroke-miterlimit:4;" d="M 552.835826 327.738309 C 552.835826 208.28949 649.6894 111.435916 769.177446 111.435916 C 888.626265 111.435916 985.479839 208.28949 985.479839 327.738309 C 985.479839 447.226355 888.626265 544.079929 769.177446 544.079929 C 649.6894 544.079929 552.835826 447.226355 552.835826 327.738309 Z M 552.835826 327.738309 " transform="matrix(0.0995785,0,0,-0.0995785,0.0471076,221.123962)"/>
<path style="fill:none;stroke-width:10;stroke-linecap:butt;stroke-linejoin:miter;stroke:rgb(13.729858%,12.159729%,12.548828%);stroke-opacity:1;stroke-miterlimit:4;" d="M 557.935447 247.125066 C 557.935447 348.92135 475.439268 431.41753 373.642984 431.41753 C 271.8467 431.41753 189.311293 348.92135 189.311293 247.125066 C 189.311293 145.328782 271.8467 62.793375 373.642984 62.793375 C 475.439268 62.793375 557.935447 145.328782 557.935447 247.125066 Z M 557.935447 247.125066 " transform="matrix(0.0995785,0,0,-0.0995785,0.0471076,221.123962)"/>
<path style="fill:none;stroke-width:10;stroke-linecap:butt;stroke-linejoin:miter;stroke:rgb(20.050049%,21.966553%,59.739685%);stroke-opacity:1;stroke-miterlimit:4;" d="M 637.293398 564.55687 C 637.293398 481.15845 569.703803 413.529628 486.266156 413.529628 C 402.867736 413.529628 335.238913 481.15845 335.238913 564.55687 C 335.238913 647.994518 402.867736 715.584112 486.266156 715.584112 C 569.703803 715.584112 637.293398 647.994518 637.293398 564.55687 Z M 637.293398 564.55687 " transform="matrix(0.0995785,0,0,-0.0995785,0.0471076,221.123962)"/>
<path style="fill:none;stroke-width:10;stroke-linecap:butt;stroke-linejoin:miter;stroke:rgb(92.321777%,13.478088%,17.372131%);stroke-opacity:1;stroke-miterlimit:4;" d="M 335.238913 549.179551 L 621.955306 625.987691 " transform="matrix(0.0995785,0,0,-0.0995785,0.0471076,221.123962)"/>
<path style="fill:none;stroke-width:10;stroke-linecap:butt;stroke-linejoin:miter;stroke:rgb(92.321777%,13.478088%,17.372131%);stroke-opacity:1;stroke-miterlimit:4;" d="M 378.742605 669.53061 L 598.889327 467.271789 " transform="matrix(0.0995785,0,0,-0.0995785,0.0471076,221.123962)"/>
<path style="fill:none;stroke-width:10;stroke-linecap:butt;stroke-linejoin:miter;stroke:rgb(92.321777%,13.478088%,17.372131%);stroke-opacity:1;stroke-miterlimit:4;" d="M 501.643475 713.034301 L 429.934956 423.768098 " transform="matrix(0.0995785,0,0,-0.0995785,0.0471076,221.123962)"/>
<path style=" stroke:none;fill-rule:nonzero;fill:rgb(92.321777%,13.478088%,17.372131%);fill-opacity:1;" d="M 49.925781 162.9375 C 49.925781 164.519531 48.644531 165.800781 47.0625 165.800781 C 45.476562 165.800781 44.195312 164.519531 44.195312 162.9375 C 44.195312 161.355469 45.476562 160.070312 47.0625 160.070312 C 48.644531 160.070312 49.925781 161.355469 49.925781 162.9375 "/>
<g clip-path="url(#clip6)" clip-rule="nonzero">
<path style="fill:none;stroke-width:10;stroke-linecap:round;stroke-linejoin:round;stroke:rgb(92.321777%,13.478088%,17.372131%);stroke-opacity:1;stroke-miterlimit:10;" d="M 2226.492263 553.02388 L 1898.351255 567.891237 " transform="matrix(0.0995785,0,0,-0.0995785,0.0471076,221.123962)"/>
</g>
<path style="fill:none;stroke-width:10;stroke-linecap:round;stroke-linejoin:round;stroke:rgb(92.321777%,13.478088%,17.372131%);stroke-opacity:1;stroke-miterlimit:10;" d="M 2069.933893 717.27091 L 1919.455841 471.27303 " transform="matrix(0.0995785,0,0,-0.0995785,0.0471076,221.123962)"/>
<path style="fill:none;stroke-width:10;stroke-linecap:round;stroke-linejoin:round;stroke:rgb(92.321777%,13.478088%,17.372131%);stroke-opacity:1;stroke-miterlimit:10;" d="M 1956.212341 678.788384 L 2005.639439 398.623043 " transform="matrix(0.0995785,0,0,-0.0995785,0.0471076,221.123962)"/>
<g clip-path="url(#clip7)" clip-rule="nonzero">
<path style="fill:none;stroke-width:10;stroke-linecap:round;stroke-linejoin:round;stroke:rgb(13.729858%,12.159729%,12.548828%);stroke-opacity:1;stroke-miterlimit:10;" d="M 2226.492263 553.02388 C 2226.492263 855.549099 1981.004346 1101.076244 1678.479127 1101.076244 C 1375.953909 1101.076244 1130.426764 855.549099 1130.426764 553.02388 C 1130.426764 250.53789 1375.953909 5.010745 1678.479127 5.010745 C 1981.004346 5.010745 2226.492263 250.53789 2226.492263 553.02388 C 2226.492263 571.304061 2225.590022 589.584241 2223.785541 607.746738 " transform="matrix(0.0995785,0,0,-0.0995785,0.0471076,221.123962)"/>
</g>
<g clip-path="url(#clip8)" clip-rule="nonzero">
<path style="fill:none;stroke-width:10;stroke-linecap:round;stroke-linejoin:round;stroke:rgb(20.050049%,21.966553%,59.739685%);stroke-opacity:1;stroke-miterlimit:10;" d="M 2226.492263 553.02388 C 2226.492263 643.797137 2152.861579 717.467049 2062.088322 717.467049 C 1971.354293 717.467049 1897.684381 643.797137 1897.684381 553.02388 C 1897.684381 462.289852 1971.354293 388.61994 2062.088322 388.61994 C 2152.861579 388.61994 2226.492263 462.289852 2226.492263 553.02388 C 2226.492263 558.51578 2226.256896 564.00768 2225.707706 569.460352 " transform="matrix(0.0995785,0,0,-0.0995785,0.0471076,221.123962)"/>
</g>
<path style="fill:none;stroke-width:10;stroke-linecap:round;stroke-linejoin:round;stroke:rgb(13.729858%,12.159729%,12.548828%);stroke-opacity:1;stroke-miterlimit:10;" d="M 2156.078263 799.37481 C 2156.078263 844.761439 2119.243307 881.596395 2073.856679 881.596395 C 2028.47005 881.596395 1991.635094 844.761439 1991.635094 799.37481 C 1991.635094 753.988182 2028.47005 717.153226 2073.856679 717.153226 C 2119.243307 717.153226 2156.078263 753.988182 2156.078263 799.37481 C 2156.078263 802.12076 2155.921351 804.827482 2155.646757 807.573432 " transform="matrix(0.0995785,0,0,-0.0995785,0.0471076,221.123962)"/>
<path style="fill:none;stroke-width:10;stroke-linecap:round;stroke-linejoin:round;stroke:rgb(13.729858%,12.159729%,12.548828%);stroke-opacity:1;stroke-miterlimit:10;" d="M 1995.204829 762.61831 C 1995.204829 823.107663 1946.091555 872.220937 1885.602202 872.220937 C 1825.073622 872.220937 1775.999575 823.107663 1775.999575 762.61831 C 1775.999575 702.128958 1825.073622 653.015683 1885.602202 653.015683 C 1946.091555 653.015683 1995.204829 702.128958 1995.204829 762.61831 C 1995.204829 766.266501 1995.00869 769.914691 1994.655639 773.562882 " transform="matrix(0.0995785,0,0,-0.0995785,0.0471076,221.123962)"/>
<path style="fill:none;stroke-width:10;stroke-linecap:round;stroke-linejoin:round;stroke:rgb(13.729858%,12.159729%,12.548828%);stroke-opacity:1;stroke-miterlimit:10;" d="M 1898.743534 576.325226 C 1898.743534 627.713716 1857.005096 669.452154 1805.616606 669.452154 C 1754.14966 669.452154 1712.411222 627.713716 1712.411222 576.325226 C 1712.411222 524.897508 1754.14966 483.15907 1805.616606 483.15907 C 1857.005096 483.15907 1898.743534 524.897508 1898.743534 576.325226 C 1898.743534 579.424227 1898.586622 582.523227 1898.272799 585.583 " transform="matrix(0.0995785,0,0,-0.0995785,0.0471076,221.123962)"/>
<path style="fill:none;stroke-width:10;stroke-linecap:round;stroke-linejoin:round;stroke:rgb(13.729858%,12.159729%,12.548828%);stroke-opacity:1;stroke-miterlimit:10;" d="M 1926.712994 444.048899 C 1926.712994 474.293575 1902.156357 498.850212 1871.911681 498.850212 C 1841.667004 498.850212 1817.110367 474.293575 1817.110367 444.048899 C 1817.110367 413.804223 1841.667004 389.247585 1871.911681 389.247585 C 1902.156357 389.247585 1926.712994 413.804223 1926.712994 444.048899 C 1926.712994 445.85338 1926.595311 447.697089 1926.438399 449.501571 " transform="matrix(0.0995785,0,0,-0.0995785,0.0471076,221.123962)"/>
<path style="fill:none;stroke-width:10;stroke-linecap:round;stroke-linejoin:round;stroke:rgb(13.729858%,12.159729%,12.548828%);stroke-opacity:1;stroke-miterlimit:10;" d="M 2101.473089 261.600145 C 2101.473089 342.134931 2036.080254 407.488538 1955.545468 407.488538 C 1875.010681 407.488538 1809.657075 342.134931 1809.657075 261.600145 C 1809.657075 181.065358 1875.010681 115.672524 1955.545468 115.672524 C 2036.080254 115.672524 2101.473089 181.065358 2101.473089 261.600145 C 2101.473089 266.464399 2101.198494 271.328653 2100.727759 276.153679 " transform="matrix(0.0995785,0,0,-0.0995785,0.0471076,221.123962)"/>
<path style=" stroke:none;fill-rule:nonzero;fill:rgb(92.321777%,13.478088%,17.372131%);fill-opacity:1;" d="M 199.285156 165.296875 C 199.285156 166.550781 198.269531 167.566406 197.015625 167.566406 C 195.761719 167.566406 194.742188 166.550781 194.742188 165.296875 C 194.742188 164.042969 195.761719 163.023438 197.015625 163.023438 C 198.269531 163.023438 199.285156 164.042969 199.285156 165.296875 "/>
</g>
</svg>
