<?xml version="1.0" encoding="UTF-8"?>
<svg xmlns="http://www.w3.org/2000/svg" xmlns:xlink="http://www.w3.org/1999/xlink" width="352.31pt" height="145.25pt" viewBox="0 0 352.31 145.25" version="1.2">
<g id="surface1">
<path style="fill:none;stroke-width:5;stroke-linecap:round;stroke-linejoin:round;stroke:rgb(0%,0%,0%);stroke-opacity:1;stroke-miterlimit:10;" d="M 122.394772 67.533886 L 1643.646923 67.533886 " transform="matrix(0.0994863,0,0,-0.0994863,0.561678,144.503853)"/>
<path style="fill:none;stroke-width:5;stroke-linecap:round;stroke-linejoin:round;stroke:rgb(0%,0%,0%);stroke-opacity:1;stroke-miterlimit:10;" d="M 122.394772 67.533886 L 883.020848 1385.004841 " transform="matrix(0.0994863,0,0,-0.0994863,0.561678,144.503853)"/>
<path style="fill:none;stroke-width:5;stroke-linecap:round;stroke-linejoin:round;stroke:rgb(0%,0%,0%);stroke-opacity:1;stroke-miterlimit:10;" d="M 426.653055 67.533886 L 730.872074 1121.502797 " transform="matrix(0.0994863,0,0,-0.0994863,0.561678,144.503853)"/>
<path style="fill:none;stroke-width:5;stroke-linecap:round;stroke-linejoin:round;stroke:rgb(0%,0%,0%);stroke-opacity:1;stroke-miterlimit:10;" d="M 730.872074 67.533886 L 578.762565 858.000753 " transform="matrix(0.0994863,0,0,-0.0994863,0.561678,144.503853)"/>
<path style="fill:none;stroke-width:5;stroke-linecap:round;stroke-linejoin:round;stroke:rgb(0%,0%,0%);stroke-opacity:1;stroke-miterlimit:10;" d="M 1035.169621 67.533886 L 426.653055 594.498709 " transform="matrix(0.0994863,0,0,-0.0994863,0.561678,144.503853)"/>
<path style="fill:none;stroke-width:5;stroke-linecap:round;stroke-linejoin:round;stroke:rgb(0%,0%,0%);stroke-opacity:1;stroke-miterlimit:10;" d="M 1339.38864 67.533886 L 274.504281 331.035929 " transform="matrix(0.0994863,0,0,-0.0994863,0.561678,144.503853)"/>
<path style="fill:none;stroke-width:47.9202;stroke-linecap:round;stroke-linejoin:round;stroke:rgb(0%,0%,0%);stroke-opacity:1;stroke-miterlimit:10;" d="M 426.653055 67.533886 L 426.653055 67.533886 " transform="matrix(0.0994863,0,0,-0.0994863,0.561678,144.503853)"/>
<path style="fill:none;stroke-width:47.9202;stroke-linecap:round;stroke-linejoin:round;stroke:rgb(0%,0%,0%);stroke-opacity:1;stroke-miterlimit:10;" d="M 730.872074 67.533886 L 730.872074 67.533886 " transform="matrix(0.0994863,0,0,-0.0994863,0.561678,144.503853)"/>
<path style="fill:none;stroke-width:47.9202;stroke-linecap:round;stroke-linejoin:round;stroke:rgb(0%,0%,0%);stroke-opacity:1;stroke-miterlimit:10;" d="M 1035.169621 67.533886 L 1035.169621 67.533886 " transform="matrix(0.0994863,0,0,-0.0994863,0.561678,144.503853)"/>
<path style="fill:none;stroke-width:47.9202;stroke-linecap:round;stroke-linejoin:round;stroke:rgb(0%,0%,0%);stroke-opacity:1;stroke-miterlimit:10;" d="M 1339.38864 67.533886 L 1339.38864 67.533886 " transform="matrix(0.0994863,0,0,-0.0994863,0.561678,144.503853)"/>
<path style="fill:none;stroke-width:47.9202;stroke-linecap:round;stroke-linejoin:round;stroke:rgb(0%,0%,0%);stroke-opacity:1;stroke-miterlimit:10;" d="M 730.872074 1121.502797 L 730.872074 1121.502797 " transform="matrix(0.0994863,0,0,-0.0994863,0.561678,144.503853)"/>
<path style="fill:none;stroke-width:47.9202;stroke-linecap:round;stroke-linejoin:round;stroke:rgb(0%,0%,0%);stroke-opacity:1;stroke-miterlimit:10;" d="M 578.762565 858.000753 L 578.762565 858.000753 " transform="matrix(0.0994863,0,0,-0.0994863,0.561678,144.503853)"/>
<path style="fill:none;stroke-width:47.9202;stroke-linecap:round;stroke-linejoin:round;stroke:rgb(0%,0%,0%);stroke-opacity:1;stroke-miterlimit:10;" d="M 426.653055 594.498709 L 426.653055 594.498709 " transform="matrix(0.0994863,0,0,-0.0994863,0.561678,144.503853)"/>
<path style="fill:none;stroke-width:47.9202;stroke-linecap:round;stroke-linejoin:round;stroke:rgb(0%,0%,0%);stroke-opacity:1;stroke-miterlimit:10;" d="M 274.504281 331.035929 L 274.504281 331.035929 " transform="matrix(0.0994863,0,0,-0.0994863,0.561678,144.503853)"/>
<path style="fill:none;stroke-width:5;stroke-linecap:round;stroke-linejoin:round;stroke:rgb(0%,0%,0%);stroke-opacity:1;stroke-miterlimit:10;" d="M 1879.467707 67.533886 L 3400.759122 67.533886 " transform="matrix(0.0994863,0,0,-0.0994863,0.561678,144.503853)"/>
<path style="fill:none;stroke-width:5;stroke-linecap:round;stroke-linejoin:round;stroke:rgb(0%,0%,0%);stroke-opacity:1;stroke-miterlimit:10;" d="M 1879.467707 67.533886 L 2640.093782 1385.004841 " transform="matrix(0.0994863,0,0,-0.0994863,0.561678,144.503853)"/>
<path style="fill:none;stroke-width:5;stroke-linecap:round;stroke-linejoin:round;stroke:rgb(0%,0%,0%);stroke-opacity:1;stroke-miterlimit:10;" d="M 1955.522461 67.533886 L 2602.086037 1319.119514 " transform="matrix(0.0994863,0,0,-0.0994863,0.561678,144.503853)"/>
<path style="fill:none;stroke-width:5;stroke-linecap:round;stroke-linejoin:round;stroke:rgb(0%,0%,0%);stroke-opacity:1;stroke-miterlimit:10;" d="M 2031.61648 67.533886 L 2564.039028 1253.234187 " transform="matrix(0.0994863,0,0,-0.0994863,0.561678,144.503853)"/>
<path style="fill:none;stroke-width:5;stroke-linecap:round;stroke-linejoin:round;stroke:rgb(0%,0%,0%);stroke-opacity:1;stroke-miterlimit:10;" d="M 2107.671235 67.533886 L 2525.992018 1187.388124 " transform="matrix(0.0994863,0,0,-0.0994863,0.561678,144.503853)"/>
<path style="fill:none;stroke-width:5;stroke-linecap:round;stroke-linejoin:round;stroke:rgb(0%,0%,0%);stroke-opacity:1;stroke-miterlimit:10;" d="M 2183.72599 67.533886 L 2487.984273 1121.502797 " transform="matrix(0.0994863,0,0,-0.0994863,0.561678,144.503853)"/>
<path style="fill:none;stroke-width:5;stroke-linecap:round;stroke-linejoin:round;stroke:rgb(0%,0%,0%);stroke-opacity:1;stroke-miterlimit:10;" d="M 2259.780744 67.533886 L 2449.937263 1055.61747 " transform="matrix(0.0994863,0,0,-0.0994863,0.561678,144.503853)"/>
<path style="fill:none;stroke-width:5;stroke-linecap:round;stroke-linejoin:round;stroke:rgb(0%,0%,0%);stroke-opacity:1;stroke-miterlimit:10;" d="M 2335.835499 67.533886 L 2411.929518 989.732143 " transform="matrix(0.0994863,0,0,-0.0994863,0.561678,144.503853)"/>
<path style="fill:none;stroke-width:5;stroke-linecap:round;stroke-linejoin:round;stroke:rgb(0%,0%,0%);stroke-opacity:1;stroke-miterlimit:10;" d="M 2411.929518 67.533886 L 2373.882509 923.88608 " transform="matrix(0.0994863,0,0,-0.0994863,0.561678,144.503853)"/>
<path style="fill:none;stroke-width:5;stroke-linecap:round;stroke-linejoin:round;stroke:rgb(0%,0%,0%);stroke-opacity:1;stroke-miterlimit:10;" d="M 2487.984273 67.533886 L 2335.835499 858.000753 " transform="matrix(0.0994863,0,0,-0.0994863,0.561678,144.503853)"/>
<path style="fill:none;stroke-width:5;stroke-linecap:round;stroke-linejoin:round;stroke:rgb(0%,0%,0%);stroke-opacity:1;stroke-miterlimit:10;" d="M 2564.039028 67.533886 L 2297.827754 792.115426 " transform="matrix(0.0994863,0,0,-0.0994863,0.561678,144.503853)"/>
<path style="fill:none;stroke-width:5;stroke-linecap:round;stroke-linejoin:round;stroke:rgb(0%,0%,0%);stroke-opacity:1;stroke-miterlimit:10;" d="M 2640.093782 67.533886 L 2259.780744 726.230099 " transform="matrix(0.0994863,0,0,-0.0994863,0.561678,144.503853)"/>
<path style="fill:none;stroke-width:5;stroke-linecap:round;stroke-linejoin:round;stroke:rgb(0%,0%,0%);stroke-opacity:1;stroke-miterlimit:10;" d="M 2716.187801 67.533886 L 2221.772999 660.384036 " transform="matrix(0.0994863,0,0,-0.0994863,0.561678,144.503853)"/>
<path style="fill:none;stroke-width:5;stroke-linecap:round;stroke-linejoin:round;stroke:rgb(0%,0%,0%);stroke-opacity:1;stroke-miterlimit:10;" d="M 2792.242556 67.533886 L 2183.72599 594.498709 " transform="matrix(0.0994863,0,0,-0.0994863,0.561678,144.503853)"/>
<path style="fill:none;stroke-width:5;stroke-linecap:round;stroke-linejoin:round;stroke:rgb(0%,0%,0%);stroke-opacity:1;stroke-miterlimit:10;" d="M 2868.297311 67.533886 L 2145.718244 528.613382 " transform="matrix(0.0994863,0,0,-0.0994863,0.561678,144.503853)"/>
<path style="fill:none;stroke-width:5;stroke-linecap:round;stroke-linejoin:round;stroke:rgb(0%,0%,0%);stroke-opacity:1;stroke-miterlimit:10;" d="M 2944.352065 67.533886 L 2107.671235 462.767319 " transform="matrix(0.0994863,0,0,-0.0994863,0.561678,144.503853)"/>
<path style="fill:none;stroke-width:5;stroke-linecap:round;stroke-linejoin:round;stroke:rgb(0%,0%,0%);stroke-opacity:1;stroke-miterlimit:10;" d="M 3020.446084 67.533886 L 2069.624225 396.881992 " transform="matrix(0.0994863,0,0,-0.0994863,0.561678,144.503853)"/>
<path style="fill:none;stroke-width:5;stroke-linecap:round;stroke-linejoin:round;stroke:rgb(0%,0%,0%);stroke-opacity:1;stroke-miterlimit:10;" d="M 3096.461575 67.533886 L 2031.61648 331.035929 " transform="matrix(0.0994863,0,0,-0.0994863,0.561678,144.503853)"/>
<path style="fill:none;stroke-width:5;stroke-linecap:round;stroke-linejoin:round;stroke:rgb(0%,0%,0%);stroke-opacity:1;stroke-miterlimit:10;" d="M 3172.555594 67.533886 L 1993.569471 265.150602 " transform="matrix(0.0994863,0,0,-0.0994863,0.561678,144.503853)"/>
<path style="fill:none;stroke-width:5;stroke-linecap:round;stroke-linejoin:round;stroke:rgb(0%,0%,0%);stroke-opacity:1;stroke-miterlimit:10;" d="M 3248.610349 67.533886 L 1955.522461 199.265275 " transform="matrix(0.0994863,0,0,-0.0994863,0.561678,144.503853)"/>
<path style="fill:none;stroke-width:5;stroke-linecap:round;stroke-linejoin:round;stroke:rgb(0%,0%,0%);stroke-opacity:1;stroke-miterlimit:10;" d="M 3324.665103 67.533886 L 1917.514716 133.379948 " transform="matrix(0.0994863,0,0,-0.0994863,0.561678,144.503853)"/>
</g>
</svg>
