<?xml version="1.0" encoding="utf-8"?>
<!-- Generator: Adobe Illustrator 24.2.1, SVG Export Plug-In . SVG Version: 6.00 Build 0)  -->
<svg version="1.1" id="Layer_1" xmlns="http://www.w3.org/2000/svg" xmlns:xlink="http://www.w3.org/1999/xlink" x="0px" y="0px"
	 viewBox="0 0 85 85" style="enable-background:new 0 0 85 85;" xml:space="preserve">
<style type="text/css">
	.st0{fill:none;}
	.st1{fill:#001641;}
</style>
<polygon class="st0" points="40.3,34.5 40.3,30.2 6.5,30.2 6.5,34.5 17,34.5 "/>
<polygon class="st0" points="40.3,17 40.3,6.5 6.5,6.5 6.5,25.7 40.3,25.7 "/>
<path class="st0" d="M68,22.4c2.5,0,4.5-2,4.5-4.5s-2-4.5-4.5-4.5c-2.5,0-4.5,2-4.5,4.5C63.5,20.3,65.5,22.4,68,22.4z"/>
<path class="st0" d="M17,63.5c-2.5,0-4.5,2-4.5,4.6c0,2.5,2,4.5,4.6,4.5c2.5,0,4.5-2,4.5-4.6c0,0,0,0,0,0
	C21.5,65.5,19.5,63.5,17,63.5z"/>
<rect x="44.8" y="74.2" class="st0" width="33.8" height="4.3"/>
<path class="st0" d="M65.8,26.6c-3.5-0.9-6.1-3.8-6.7-7.3H44.8v17.5c0,1.2-1,2.2-2.2,2.2H19.3v20.3c3.2,0.8,5.7,3.3,6.5,6.5h14.5
	V48.3c0-1.2,1-2.3,2.2-2.3c0,0,0,0,0,0h23.3V26.6z"/>
<polygon class="st0" points="44.8,50.5 44.8,68 44.8,68 44.8,68 44.8,69.7 78.5,69.7 78.5,50.5 68,50.5 "/>
<path class="st1" d="M83,72V48.3c0-1.2-1-2.3-2.2-2.3H70.3V26.6c4.8-1.3,7.7-6.2,6.4-11c-1.3-4.8-6.2-7.7-11-6.4
	c-2.8,0.7-5.1,2.8-6.1,5.6H44.8V4.2c0-1.2-1-2.2-2.2-2.2H4.2C3,2,2,3,2,4.2v32.5C2,38,3,39,4.2,39h10.5v20.3
	c-4.8,1.3-7.7,6.2-6.4,11s6.2,7.7,11,6.4c3.1-0.8,5.6-3.3,6.4-6.4h14.5v10.5c0,1.2,1,2.2,2.2,2.2h38.3c1.2,0,2.2-1,2.2-2.2V72z
	 M68,13.3c2.5,0,4.5,2,4.5,4.5s-2,4.5-4.5,4.5s-4.5-2-4.5-4.5C63.5,15.3,65.5,13.3,68,13.3z M6.5,6.5h33.8v19.2H6.5V6.5z M6.5,34.5
	v-4.3h33.8v4.3L6.5,34.5L6.5,34.5z M17,72.6c-2.5,0-4.5-2-4.5-4.6c0-2.5,2-4.5,4.6-4.5c2.5,0,4.5,2,4.5,4.5
	C21.6,70.5,19.5,72.6,17,72.6C17,72.6,17,72.6,17,72.6z M40.3,48.3v17.5H25.8c-0.8-3.2-3.3-5.7-6.5-6.5V39h23.3c1.2,0,2.2-1,2.2-2.2
	V19.3h14.3c0.6,3.6,3.2,6.4,6.7,7.3V46H42.5C41.3,46,40.3,47,40.3,48.3C40.3,48.3,40.3,48.3,40.3,48.3L40.3,48.3z M78.5,78.5H44.8
	v-4.3h33.8V78.5z M78.5,69.7H44.8V68l0,0V50.5h33.8V69.7z"/>
</svg>
